<svg xmlns="http://www.w3.org/2000/svg" viewBox="0 0 300 310" fill="none">
  <defs>
    <linearGradient id="cloak" x1="85" y1="187" x2="218" y2="315" gradientUnits="userSpaceOnUse">
      <stop stop-color="#66835C"/><stop offset="1" stop-color="#354E3E"/>
    </linearGradient>
    <linearGradient id="hair" x1="99" y1="34" x2="206" y2="166" gradientUnits="userSpaceOnUse">
      <stop stop-color="#F4D989"/><stop offset="1" stop-color="#C98F42"/>
    </linearGradient>
    <linearGradient id="leather" x1="132" y1="220" x2="182" y2="301" gradientUnits="userSpaceOnUse">
      <stop stop-color="#A1774B"/><stop offset="1" stop-color="#775538"/>
    </linearGradient>
  </defs>
  <!-- pointed elven ears -->
  <path d="M108 103 45 75l36 69c8 12 22 12 31 3l8-19-12-25ZM194 101l62-33-32 73c-7 13-21 14-31 5l-10-19 11-26Z" fill="#F5DCC1" stroke="#8E684A" stroke-width="3" stroke-linejoin="round"/>
  <path d="m104 111-38-23 29 45c5 7 12 9 19 5l4-9-14-18Zm91-1 38-22-26 48c-5 7-13 10-20 5l-5-10 13-21Z" fill="#EABEA4"/>
  <!-- bow, over the ranger's shoulder -->
  <path d="M207 172c42 21 53 63 42 111-8-35-26-57-52-72" stroke="#9B7848" stroke-width="6" stroke-linecap="round"/>
  <path d="m199 168 21 9-13 12-11-12 3-9Z" fill="#D4AF68" stroke="#846640" stroke-width="2"/>
  <path d="m214 174 35 108" stroke="#EFE6CF" stroke-width="1.5" opacity=".8"/>
  <!-- forest cloak and shoulders -->
  <path d="M93 221c5-24 22-37 44-45h28c26 8 43 22 51 45l30 77H55l38-77Z" fill="url(#cloak)" stroke="#3D5742" stroke-width="3" stroke-linejoin="round"/>
  <path d="m123 186 26 23 28-23 15 23-17 90h-54l-17-90 19-23Z" fill="url(#leather)" stroke="#674B34" stroke-width="2.5" stroke-linejoin="round"/>
  <path d="m144 209 5 70h8l5-70-9 9-9-9Z" fill="#D4B46F"/>
  <path d="M70 290c15-32 30-51 50-61l7 18-13 47H70Z" fill="#78936A" opacity=".84"/>
  <path d="M218 290c-13-30-28-48-47-61l-8 18 13 43h42Z" fill="#78936A" opacity=".78"/>
  <!-- collar -->
  <path d="m121 184 27 18-21 24-22-24 16-18Zm55 0-27 18 20 24 22-24-15-18Z" fill="#F0E5C6" stroke="#9E8254" stroke-width="2" stroke-linejoin="round"/>
  <!-- neck -->
  <path d="M130 164h39v37c-9 13-28 13-39 0v-37Z" fill="#F4D8BC"/>
  <!-- face -->
  <path d="M150 51c-37 0-57 28-55 68l3 30c3 31 24 52 52 52 29 0 49-21 52-52l3-30c2-40-18-68-55-68Z" fill="#FFF0DB" stroke="#A87955" stroke-width="3"/>
  <path d="M110 113c10-4 19-3 27 2M164 115c8-5 18-6 27-2" stroke="#7B5647" stroke-width="3" stroke-linecap="round"/>
  <!-- anime eyes -->
  <path d="M114 128c7-8 19-9 27 0-6 10-20 11-27 0Z" fill="#fff" stroke="#705345" stroke-width="1.8"/>
  <ellipse cx="128" cy="129" rx="5.2" ry="7.3" fill="#5D774E"/>
  <ellipse cx="129.5" cy="128" rx="2" ry="4" fill="#253F36"/>
  <circle cx="130" cy="125.5" r="1.8" fill="#fff"/>
  <path d="M160 128c7-8 19-9 27 0-6 10-20 11-27 0Z" fill="#fff" stroke="#705345" stroke-width="1.8"/>
  <ellipse cx="174" cy="129" rx="5.2" ry="7.3" fill="#5D774E"/>
  <ellipse cx="175.5" cy="128" rx="2" ry="4" fill="#253F36"/>
  <circle cx="176" cy="125.5" r="1.8" fill="#fff"/>
  <path d="M143 145c3-2 7-2 10 0l-2 9c-2 2-5 2-7 0l-1-9Z" fill="#EAC4A7"/>
  <path d="M139 163c7 7 16 7 23 0" stroke="#AE6B64" stroke-width="2.5" stroke-linecap="round"/>
  <path d="M106 151c5 4 11 5 17 3m55 0c6 2 12 1 17-3" stroke="#E5A397" stroke-width="5" stroke-linecap="round" opacity=".42"/>
  <!-- flowing blonde hair -->
  <path d="M96 119c-14-27-9-63 12-81 10-9 23-13 40-13 32 0 55 19 60 49 4 22-1 40-8 53-2-15-8-26-19-33-7 14-19 22-31 25l4-20c-12 19-29 27-51 28l-7 18-9-26Z" fill="url(#hair)" stroke="#A8793F" stroke-width="3" stroke-linejoin="round"/>
  <path d="M116 48c-10 15-12 33-8 49m24-62c-7 15-8 30-6 46m19-51c-4 13-4 24-2 34m29-26c10 11 15 24 16 38" stroke="#FFE7A1" stroke-width="5" stroke-linecap="round" opacity=".86"/>
  <path d="M98 127c-8 18-8 38 2 56 4 7 8 13 15 17l-4-34 5-25-18-14Zm99-7c10 17 10 39 3 57-3 8-8 15-15 21l3-34-6-28 15-16Z" fill="#DCA650" stroke="#A8793F" stroke-width="2" stroke-linejoin="round"/>
  <!-- leaf ornament -->
  <path d="M104 80c-13-12-13-28-3-37 13 7 17 22 8 36" fill="#71895A" stroke="#526C49" stroke-width="2"/>
  <path d="m105 78 1-23" stroke="#D1BB7B" stroke-width="1.5"/>
  <circle cx="109" cy="83" r="5" fill="#C99F53" stroke="#8F7143" stroke-width="1.5"/>
  <!-- fine cape stitching -->
  <path d="M88 268c21-18 35-25 45-28m78 28c-20-18-33-24-43-28" stroke="#ACB68A" stroke-width="1.4" stroke-dasharray="3 5" opacity=".9"/>
</svg>
